<svg width="100%" viewBox="0 0 448 447" fill="none" xmlns="http://www.w3.org/2000/svg">
<path d="M202.825 446.412C124.642 438.453 56.6576 391.363 22.8495 321.75C8.63884 292.489 1.57087 264.522 0.189669 232.088C-2.69149 164.431 27.4235 95.7978 78.8247 52.8761C113.672 23.7773 152.019 7.05888 197.668 1.06307C208.405 -0.347111 237.729 -0.356212 249.325 1.04707C284.174 5.26427 318.887 17.9518 347.325 36.866C437.497 96.8413 472.083 212.295 429.555 311.366C397.898 385.112 329.447 436.313 250.105 445.595C238.755 446.922 212.327 447.379 202.825 446.412V446.412ZM251.189 349.338C251.463 348.376 254.918 332.288 258.865 313.588C262.812 294.888 266.172 279.447 266.331 279.274C266.49 279.101 269.799 280.561 273.684 282.517C296.456 293.985 321.978 294.944 342.325 285.096C370.218 271.595 387.225 238.91 381.376 210.044C376.458 185.775 360.418 167.334 336.52 158.474C326.993 154.943 309.621 154.008 299.799 156.5C285.059 160.238 272.077 168.701 263.285 180.302C258.299 186.881 251.248 200.721 250.192 206.002C249.852 207.699 249.284 209.088 248.93 209.088C248.166 209.088 238.846 192.33 232.524 179.588C226.67 167.791 223.323 159.877 218.778 147.088L215.046 136.588L197.935 136.315L180.825 136.041V180.881C180.825 227.31 180.352 234.174 176.656 241.42C171.514 251.498 160.082 258.213 148.066 258.213C138.138 258.213 132.321 255.775 125.315 248.677C115.523 238.755 115.814 240.728 115.82 184.338L115.825 136.088H98.2664H80.708L81.0861 186.838C81.5011 242.537 81.4966 242.491 87.9416 255.482C104.37 288.595 143.711 302.295 175.827 286.086C189.09 279.393 199.143 269.195 205.892 255.588C210.901 245.492 212.785 236.516 212.807 222.659L212.825 211.729L219.849 223.99C223.713 230.733 229.113 239.569 231.849 243.624C234.586 247.68 236.824 251.581 236.823 252.293C236.823 253.005 232.099 275.188 226.327 301.588C220.555 327.988 215.831 349.926 215.829 350.338C215.827 350.751 223.669 351.088 233.257 351.088C249.003 351.088 250.738 350.919 251.189 349.338H251.189ZM301.992 255.555C294.862 254.007 283.015 248.433 277.977 244.256L274.63 241.481L277.761 227.552C281.483 210.99 284.115 204.83 290.291 198.228C296.789 191.281 303.179 188.621 313.325 188.642C319.81 188.655 322.389 189.151 326.945 191.258C341.223 197.864 349.417 212.353 346.785 226.338C344.084 240.69 333.725 252.056 320.114 255.601C313.294 257.377 310.355 257.37 301.992 255.555V255.555Z" fill="white"/>
</svg>
